# xmcd
#
# Track frame offsets: 
#        150
#        12035
#        30188
#        47742
#        65300
#        84373
#        101790
#        118999
#        133606
#        151930
#        168132
#        182968
#        198716
#        218212
#        230804
#        242514
#        262053
#        289054
#        302516
#        324019
#        339174
#
# Disc length: 4711 seconds
#
# Revision: 3
# Processed by: cddbd v1.5.2PL0 Copyright (c) Steve Scherf et al.
# Submitted via: ExactAudioCopy v1.1
#
DISCID=1c126515
DTITLE=Ronnell Bright Trio - Complete Recordings 1956-1958 - Disc 1
DYEAR=2009
DGENRE=Jazz
TTITLE0=Bright Bounce (mono)
TTITLE1=Pennies From Heaven (mono)
TTITLE2=Gone With The Wind (mono)
TTITLE3=If I'm Lucky (mono)
TTITLE4=Blue Zepher (mono)
TTITLE5=Struttin' In (mono)
TTITLE6=I See Your Face Before Me (mono)
TTITLE7=Bright's Spot (mono)
TTITLE8=Little Girl Blue (mono)
TTITLE9=I Remember You (mono)
TTITLE10=Randall's Island (mono)
TTITLE11=Sallye (mono)
TTITLE12=People Will Say We're In Love (mono)
TTITLE13=Liza (mono)
TTITLE14=It Never Entered My Mind (mono)
TTITLE15=For Pete's Sake (mono)
TTITLE16=Toasted 'Ammond (mono)
TTITLE17=It Could Happen To You (mono)
TTITLE18=How Little We Know (mono)
TTITLE19=Bohemia, U.S.A. (mono)
TTITLE20=I've Grown Accustomed To Your Face (mono)
EXTD=YEAR: 2009
EXTT0=
EXTT1=
EXTT2=
EXTT3=
EXTT4=
EXTT5=
EXTT6=
EXTT7=
EXTT8=
EXTT9=
EXTT10=
EXTT11=
EXTT12=
EXTT13=
EXTT14=
EXTT15=
EXTT16=
EXTT17=
EXTT18=
EXTT19=
EXTT20=
PLAYORDER=
